<svg id="Layer_1" data-name="Layer 1" xmlns="http://www.w3.org/2000/svg" viewBox="0 0 750 180"><defs><style>.cls-1{fill:#14bf96;}.cls-2{fill:#fff;}.cls-3{font-size:55.33px;}.cls-3,.cls-4{font-family:Menlo-Regular, Menlo;}.cls-4{font-size:19px;}.cls-5{fill:#ffd633;}.cls-6{fill:#e6ecef;stroke:#14bf96;stroke-miterlimit:10;stroke-width:7px;}</style></defs><title>onoffOR ?</title><rect class="cls-1" x="509" y="71.28" width="170.84" height="35.05"/><rect class="cls-2" x="530.21" y="77.91" width="149.85" height="20.69"/><text class="cls-3" transform="translate(695.85 106.36)">?</text><text class="cls-4" transform="translate(554.85 94.75)">?</text><text class="cls-4" transform="translate(586.85 94.75)">?</text><text class="cls-4" transform="translate(618.85 94.75)">?</text><text class="cls-4" transform="translate(650.85 94.75)">?</text><rect class="cls-1" x="65.22" y="22.87" width="309.33" height="35.05"/><rect class="cls-5" x="65.22" y="29.5" width="309.78" height="20.69"/><rect class="cls-1" x="65.22" y="112.78" width="322.47" height="35.05"/><rect class="cls-5" x="65.22" y="119.41" width="322.78" height="20.84"/><path class="cls-6" d="M533.21,87.08c0,78.38-196,78.38-196,78.38s36.25-39,36.25-77S337.25,11,337.25,11,533.21,11,533.21,87.08Z"/><text class="cls-3" transform="translate(11.85 60.25)">1</text><text class="cls-3" transform="translate(11.85 150.16)">1</text><text class="cls-3" transform="translate(406.8 110.97)">OR</text></svg>